<svg width="32" height="32" viewBox="0 0 32 32" fill="none" xmlns="http://www.w3.org/2000/svg">
<path d="M16.0003 29.3327C14.1781 29.3327 12.4559 28.9825 10.8337 28.282C9.21144 27.5816 7.79455 26.626 6.58299 25.4153C5.37233 24.2047 4.41677 22.7882 3.71633 21.166C3.01588 19.5438 2.6661 17.8216 2.66699 15.9993C2.66699 14.1549 3.01722 12.4269 3.71766 10.8153C4.41811 9.20379 5.37366 7.79313 6.58433 6.58335C7.79499 5.37179 9.21099 4.41624 10.8323 3.71668C12.4537 3.01713 14.1763 2.6669 16.0003 2.66602C17.8448 2.66602 19.5728 3.01624 21.1843 3.71668C22.7959 4.41713 24.2066 5.37268 25.4163 6.58335C26.6279 7.79402 27.5834 9.20513 28.283 10.8167C28.9826 12.4282 29.3328 14.1558 29.3337 15.9993V17.9327C29.3337 19.2438 28.8839 20.3607 27.9843 21.2833C27.0848 22.206 25.979 22.6669 24.667 22.666C23.867 22.666 23.1226 22.4882 22.4337 22.1327C21.7448 21.7771 21.1781 21.3105 20.7337 20.7327C20.1337 21.3327 19.4279 21.8051 18.6163 22.15C17.8048 22.4949 16.9328 22.6669 16.0003 22.666C14.1559 22.666 12.5834 22.0158 11.283 20.7153C9.98255 19.4149 9.33277 17.8429 9.33366 15.9993C9.33366 14.1549 9.98388 12.5825 11.2843 11.282C12.5848 9.98157 14.1568 9.33179 16.0003 9.33268C17.8448 9.33268 19.4172 9.9829 20.7177 11.2833C22.0181 12.5838 22.6679 14.1558 22.667 15.9993V17.9327C22.667 18.5771 22.867 19.0825 23.267 19.4487C23.667 19.8149 24.1337 19.9985 24.667 19.9993C25.2003 19.9993 25.667 19.8158 26.067 19.4487C26.467 19.0816 26.667 18.5762 26.667 17.9327V15.9993C26.667 13.0882 25.6168 10.5825 23.5163 8.48202C21.4159 6.38157 18.9105 5.33179 16.0003 5.33268C13.0892 5.33268 10.5834 6.3829 8.48299 8.48335C6.38255 10.5838 5.33277 13.0891 5.33366 15.9993C5.33366 18.9105 6.38388 21.4162 8.48433 23.5167C10.5848 25.6171 13.0901 26.6669 16.0003 26.666H21.3337C21.7114 26.666 22.0283 26.794 22.2843 27.05C22.5403 27.306 22.6679 27.6225 22.667 27.9993C22.667 28.3771 22.539 28.694 22.283 28.95C22.027 29.206 21.7106 29.3336 21.3337 29.3327H16.0003ZM16.0003 19.9993C17.1114 19.9993 18.0559 19.6105 18.8337 18.8327C19.6114 18.0549 20.0003 17.1105 20.0003 15.9993C20.0003 14.8882 19.6114 13.9438 18.8337 13.166C18.0559 12.3882 17.1114 11.9993 16.0003 11.9993C14.8892 11.9993 13.9448 12.3882 13.167 13.166C12.3892 13.9438 12.0003 14.8882 12.0003 15.9993C12.0003 17.1105 12.3892 18.0549 13.167 18.8327C13.9448 19.6105 14.8892 19.9993 16.0003 19.9993Z" fill="#FF7A00"/>
</svg>
