<svg width="254" height="209" viewBox="0 0 254 209" fill="none" xmlns="http://www.w3.org/2000/svg">
<path d="M114.26 0L118.241 8.37595C100.724 15.2894 86.9227 22.7347 76.837 30.7118C67.0167 38.6889 58.3908 49.0592 50.9592 61.8225C40.0773 80.7017 33.7074 99.1819 31.8495 117.263C39.2811 114.87 45.651 113.674 50.9592 113.674C65.5569 113.674 77.3678 118.061 86.3918 126.836C95.6813 135.611 100.326 146.779 100.326 160.34C100.326 173.901 95.6813 185.468 86.3918 195.04C77.3678 204.347 66.3532 209 53.348 209C37.4232 209 24.5507 202.618 14.7304 189.855C4.91014 177.092 0 160.34 0 139.599C0 118.859 4.91014 98.2513 14.7304 77.7767C24.8161 57.3022 37.954 40.5503 54.1442 27.521C71.6614 13.694 91.7001 4.52036 114.26 0ZM250.417 0L254 8.37595C236.483 15.2894 222.681 22.7347 212.596 30.7118C202.775 38.6889 194.282 49.0592 187.116 61.8225C175.969 80.7017 169.466 99.1819 167.608 117.263C175.04 114.87 181.41 113.674 186.718 113.674C201.316 113.674 213.126 118.061 222.15 126.836C231.44 135.611 236.085 146.779 236.085 160.34C236.085 173.901 231.44 185.468 222.15 195.04C213.126 204.347 202.112 209 189.107 209C173.182 209 160.309 202.618 150.489 189.855C140.669 177.092 135.759 160.34 135.759 139.599C135.759 118.859 140.669 98.2513 150.489 77.7767C160.575 57.3022 173.845 40.5503 190.301 27.521C207.553 13.694 227.591 4.52036 250.417 0Z" fill="#FF7A00" fill-opacity="0.1"/>
</svg>
