<svg width="314" height="413" viewBox="0 0 314 413" fill="none" xmlns="http://www.w3.org/2000/svg">
<path d="M164.458 13.7382C168.386 1.60129 184.539 -0.738247 191.748 9.78569L264.929 116.613C267.51 120.38 271.267 123.187 275.613 124.593L398.813 164.458C410.95 168.386 413.289 184.539 402.765 191.748L295.938 264.929C292.17 267.51 289.364 271.267 287.958 275.613L248.093 398.813C244.165 410.95 228.012 413.289 220.803 402.765L147.622 295.938C145.04 292.17 141.283 289.364 136.938 287.958L13.7382 248.093C1.60126 244.165 -0.73828 228.012 9.78566 220.803L116.612 147.622C120.38 145.04 123.187 141.283 124.593 136.938L164.458 13.7382Z" stroke="#FF7A00" stroke-opacity="0.1" stroke-width="5.29732"/>
</svg>
