<svg width="83" height="82" viewBox="0 0 83 82" fill="none" xmlns="http://www.w3.org/2000/svg">
<path d="M41.4998 41.0007C43.4019 41.0007 45.0308 40.331 46.3864 38.9916C47.7421 37.6523 48.4188 36.0442 48.4165 34.1673C48.4165 32.2882 47.7386 30.6789 46.383 29.3396C45.0273 28.0002 43.3996 27.3317 41.4998 27.334C39.5977 27.334 37.9688 28.0037 36.6132 29.343C35.2575 30.6823 34.5808 32.2904 34.5831 34.1673C34.5831 36.0465 35.261 37.6557 36.6166 38.9951C37.9723 40.3344 39.6 41.0029 41.4998 41.0007ZM41.4998 75.1673C32.2199 67.3659 25.2894 60.1203 20.7083 53.4305C16.1272 46.7407 13.8354 40.5474 13.8331 34.8507C13.8331 26.309 16.6148 19.5041 22.1781 14.4361C27.7414 9.36801 34.182 6.83398 41.4998 6.83398C48.8199 6.83398 55.2617 9.36801 60.825 14.4361C66.3883 19.5041 69.1688 26.309 69.1665 34.8507C69.1665 40.5451 66.8747 46.7384 62.2913 53.4305C57.7078 60.1226 50.7774 67.3682 41.4998 75.1673Z" fill="#FF7A00"/>
</svg>
