<svg width="36" height="35" viewBox="0 0 36 35" fill="none" xmlns="http://www.w3.org/2000/svg">
<path d="M16.205 1.15235C16.9376 -0.33814 19.0624 -0.338141 19.795 1.15235L24.2894 10.2977C24.4845 10.6945 24.8055 11.0155 25.2023 11.2106L34.3476 15.705C35.8381 16.4376 35.8381 18.5624 34.3476 19.295L25.2023 23.7894C24.8055 23.9845 24.4845 24.3055 24.2894 24.7023L19.795 33.8476C19.0624 35.3381 16.9376 35.3381 16.205 33.8476L11.7106 24.7023C11.5155 24.3055 11.1945 23.9845 10.7977 23.7894L1.65235 19.295C0.16186 18.5624 0.161859 16.4376 1.65235 15.705L10.7977 11.2106C11.1945 11.0155 11.5155 10.6945 11.7106 10.2977L16.205 1.15235Z" fill="#FF7A00"/>
</svg>
