<svg width="103" height="47" viewBox="0 0 103 47" fill="none" xmlns="http://www.w3.org/2000/svg">
<path d="M19.0392 46.0856C24.0878 46.0856 28.1805 45.3066 28.1805 44.3456C28.1805 43.3846 24.0878 42.6056 19.0392 42.6056C13.9906 42.6056 9.89795 43.3846 9.89795 44.3456C9.89795 45.3066 13.9906 46.0856 19.0392 46.0856Z" fill="#1B1B1B"/>
<path d="M28.3697 16.7231V27.7242C27.2892 27.0274 26.0304 26.6575 24.7447 26.6588C21.4412 26.7281 20.0511 29.625 16.5491 29.9528C14.3741 30.1514 12.2968 29.2751 10.4023 27.8755V16.7231H28.3697Z" stroke="#1B1B1B" stroke-width="0.630434" stroke-miterlimit="10"/>
<path d="M29.4698 15.1376H8.66553V16.7137H29.4698V15.1376Z" fill="#1B1B1B"/>
<path d="M20.3316 10.2328V15.1471H18.7555V11.1186C18.7566 10.9784 18.7215 10.8403 18.6536 10.7177C18.5857 10.5951 18.4872 10.4921 18.3677 10.4188L12.1958 6.67087L13.0154 5.32489L19.9501 9.53304C20.0684 9.60715 20.1656 9.71045 20.2324 9.833C20.2992 9.95556 20.3334 10.0933 20.3316 10.2328Z" fill="#1B1B1B"/>
<path d="M10.4185 10L10.4658 10.1734C10.5449 10.4595 10.6968 10.7203 10.9068 10.9302C11.1167 11.1401 11.3774 11.2921 11.6636 11.3712L11.837 11.4185L11.6636 11.4658C11.3773 11.5446 11.1164 11.6965 10.9064 11.9064C10.6965 12.1164 10.5446 12.3773 10.4658 12.6636L10.4185 12.837L10.3712 12.6636C10.292 12.3774 10.1401 12.1167 9.93018 11.9068C9.72025 11.6968 9.45951 11.5449 9.17337 11.4658L9 11.4185L9.17337 11.3712C9.45923 11.2915 9.71968 11.1394 9.92952 10.9295C10.1394 10.7197 10.2915 10.4592 10.3712 10.1734L10.4185 10Z" fill="#1B1B1B"/>
<path d="M17.7337 0L17.7904 0.2112C17.8866 0.5608 18.072 0.879407 18.3284 1.1358C18.5848 1.3922 18.9034 1.57758 19.253 1.6738L19.4674 1.73369L19.253 1.79043C18.9032 1.88721 18.5845 2.07317 18.3281 2.3301C18.0717 2.58704 17.8865 2.90615 17.7904 3.25619L17.7337 3.46739L17.6738 3.25619C17.5781 2.90601 17.3929 2.58676 17.1365 2.32978C16.88 2.0728 16.5612 1.88693 16.2112 1.79043L16 1.73369L16.2112 1.6738C16.5611 1.57815 16.88 1.39295 17.1365 1.13647C17.3929 0.879983 17.5782 0.561083 17.6738 0.2112L17.7337 0Z" fill="#1B1B1B"/>
<path d="M28.5272 27.4784C27.3881 26.7829 26.0792 26.4153 24.7445 26.4161C22.9793 26.4508 21.7216 27.2293 20.5017 27.9922C19.3575 28.6982 18.1754 29.4296 16.5268 29.5682C14.6355 29.7385 12.6371 29.086 10.5882 27.6391L10.0933 27.2861V32.8686C10.0958 35.0021 10.9444 37.0476 12.4531 38.5562C13.9617 40.0649 16.0072 40.9136 18.1407 40.9161H20.6436C22.7769 40.9127 24.8218 40.0638 26.3303 38.5553C27.8388 37.0468 28.6877 35.0019 28.6911 32.8686V27.5698L28.5272 27.4784ZM12.9302 32.9032C12.7432 32.9032 12.5603 32.8478 12.4048 32.7439C11.4821 32.1273 12.2668 30.6592 13.2921 31.0839C13.4649 31.1555 13.6126 31.2767 13.7165 31.4322C13.8204 31.5877 13.8759 31.7706 13.8759 31.9576C13.8759 32.2084 13.7762 32.4489 13.5989 32.6263C13.4215 32.8036 13.181 32.9032 12.9302 32.9032ZM14.7963 38.2619C14.6716 38.2619 14.5497 38.225 14.4461 38.1557C14.3424 38.0864 14.2616 37.988 14.2139 37.8728C14.1661 37.7576 14.1537 37.6308 14.178 37.5085C14.2023 37.3862 14.2624 37.2739 14.3505 37.1857C14.4387 37.0975 14.551 37.0375 14.6733 37.0132C14.7956 36.9889 14.9224 37.0013 15.0376 37.0491C15.1528 37.0968 15.2512 37.1776 15.3205 37.2813C15.3898 37.3849 15.4267 37.5068 15.4267 37.6315C15.4259 37.7981 15.3591 37.9577 15.241 38.0752C15.1228 38.1928 14.963 38.2588 14.7963 38.2588V38.2619ZM25.0976 28.6226C25.2223 28.6226 25.3442 28.6596 25.4478 28.7288C25.5515 28.7981 25.6323 28.8966 25.68 29.0118C25.7277 29.127 25.7402 29.2537 25.7159 29.376C25.6916 29.4983 25.6315 29.6106 25.5434 29.6988C25.4552 29.787 25.3429 29.847 25.2206 29.8714C25.0983 29.8957 24.9715 29.8832 24.8563 29.8355C24.7411 29.7878 24.6427 29.707 24.5734 29.6033C24.5041 29.4996 24.4672 29.3777 24.4672 29.253C24.4667 29.17 24.4827 29.0877 24.5142 29.0108C24.5457 28.934 24.5921 28.8641 24.6507 28.8052C24.7093 28.7463 24.7789 28.6996 24.8556 28.6677C24.9323 28.6359 25.0145 28.6194 25.0976 28.6194V28.6226ZM17.2581 35.8568C17.0088 35.8568 16.765 35.7829 16.5576 35.6443C16.3503 35.5058 16.1887 35.3089 16.0933 35.0785C15.9978 34.8481 15.9729 34.5946 16.0215 34.35C16.0702 34.1054 16.1902 33.8807 16.3666 33.7044C16.5429 33.5281 16.7676 33.408 17.0122 33.3593C17.2567 33.3107 17.5103 33.3356 17.7407 33.4311C17.9711 33.5265 18.168 33.6881 18.3065 33.8955C18.4451 34.1028 18.519 34.3466 18.519 34.596C18.5182 34.9298 18.385 35.2497 18.1486 35.4855C17.9122 35.7213 17.592 35.8537 17.2581 35.8537V35.8568ZM20.3693 39.6552C20.2446 39.6552 20.1228 39.6182 20.0191 39.5489C19.9154 39.4797 19.8346 39.3812 19.7869 39.266C19.7392 39.1508 19.7267 39.0241 19.751 38.9018C19.7753 38.7795 19.8354 38.6671 19.9236 38.579C20.0117 38.4908 20.124 38.4308 20.2463 38.4064C20.3686 38.3821 20.4954 38.3946 20.6106 38.4423C20.7258 38.49 20.8242 38.5708 20.8935 38.6745C20.9628 38.7782 20.9998 38.9001 20.9998 39.0248C20.9989 39.1914 20.9321 39.351 20.814 39.4685C20.6959 39.5861 20.536 39.652 20.3693 39.652V39.6552ZM20.5742 31.5384C20.4495 31.5384 20.3276 31.5014 20.224 31.4321C20.1203 31.3628 20.0395 31.2644 19.9918 31.1492C19.9441 31.034 19.9316 30.9072 19.9559 30.7849C19.9802 30.6626 20.0403 30.5503 20.1284 30.4621C20.2166 30.374 20.3289 30.3139 20.4512 30.2896C20.5735 30.2653 20.7003 30.2778 20.8155 30.3255C20.9307 30.3732 21.0291 30.454 21.0984 30.5577C21.1677 30.6613 21.2047 30.7832 21.2047 30.9079C21.2047 31.0751 21.1382 31.2355 21.02 31.3537C20.9018 31.4719 20.7414 31.5384 20.5742 31.5384ZM22.8911 36.6669C22.7664 36.6669 22.6445 36.63 22.5408 36.5607C22.4371 36.4914 22.3563 36.393 22.3086 36.2778C22.2609 36.1626 22.2484 36.0358 22.2727 35.9135C22.2971 35.7912 22.3571 35.6789 22.4453 35.5907C22.5335 35.5025 22.6458 35.4425 22.7681 35.4182C22.8904 35.3939 23.0171 35.4063 23.1323 35.4541C23.2475 35.5018 23.346 35.5826 23.4153 35.6863C23.4845 35.7899 23.5215 35.9118 23.5215 36.0365C23.5198 36.2026 23.4527 36.3613 23.3346 36.4782C23.2166 36.5951 23.0572 36.6606 22.8911 36.6606V36.6669ZM25.4128 33.9844C25.2258 33.9844 25.0429 33.929 24.8874 33.8251C24.7319 33.7212 24.6107 33.5735 24.5391 33.4007C24.4676 33.2279 24.4488 33.0377 24.4853 32.8543C24.5218 32.6709 24.6119 32.5024 24.7441 32.3701C24.8764 32.2379 25.0449 32.1478 25.2283 32.1113C25.4118 32.0748 25.6019 32.0935 25.7747 32.1651C25.9475 32.2367 26.0952 32.3579 26.1991 32.5134C26.303 32.6689 26.3585 32.8518 26.3585 33.0388C26.3568 33.2885 26.2564 33.5274 26.0793 33.7034C25.9021 33.8794 25.6625 33.9781 25.4128 33.9781V33.9844Z" fill="#1B1B1B"/>
<path d="M26.6667 7L26.7581 7.31522C26.9063 7.85603 27.1926 8.34902 27.5888 8.7458C27.9851 9.14259 28.4776 9.42953 29.0182 9.57848L29.3335 9.66989L29.0182 9.75815C28.4776 9.90709 27.9851 10.194 27.5888 10.5908C27.1926 10.9876 26.9063 11.4806 26.7581 12.0214L26.6667 12.3366L26.5753 12.0214C26.4271 11.4806 26.1409 10.9876 25.7446 10.5908C25.3484 10.194 24.8558 9.90709 24.3152 9.75815L24 9.66989L24.3152 9.57848C24.8558 9.42953 25.3484 9.14259 25.7446 8.7458C26.1409 8.34902 26.4271 7.85603 26.5753 7.31522L26.6667 7Z" fill="#1B1B1B"/>
<path d="M51.2859 14.6887C51.3634 14.5338 51.5087 14.4563 51.7217 14.4563H55.092C55.1889 14.4563 55.2664 14.495 55.3245 14.5725C55.4019 14.6306 55.4407 14.7081 55.4407 14.805V34.4457C55.4407 34.5425 55.4019 34.6297 55.3245 34.7072C55.2664 34.7653 55.1889 34.7943 55.092 34.7943H51.6927C51.5958 34.7943 51.5087 34.7653 51.4312 34.7072C51.3731 34.6297 51.344 34.5425 51.344 34.4457V21.4003C51.344 21.3228 51.3247 21.2841 51.2859 21.2841C51.2472 21.2841 51.2084 21.3131 51.1697 21.3712L48.9035 25.3807C48.8066 25.5357 48.7291 25.6132 48.671 25.6132C48.6129 25.6132 48.5354 25.5357 48.4386 25.3807L46.1724 21.3712C46.1336 21.3131 46.0949 21.2841 46.0561 21.2841C46.0174 21.2841 45.998 21.3228 45.998 21.4003V34.4457C45.998 34.5425 45.9593 34.6297 45.8818 34.7072C45.8237 34.7653 45.7462 34.7943 45.6494 34.7943H42.25C42.1532 34.7943 42.066 34.7653 41.9885 34.7072C41.9304 34.6297 41.9014 34.5425 41.9014 34.4457V14.805C41.9014 14.7081 41.9304 14.6306 41.9885 14.5725C42.066 14.495 42.1532 14.4563 42.25 14.4563H45.5913C45.785 14.4563 45.9302 14.5338 46.0271 14.6887L48.6129 19.3084C48.671 19.3859 48.7291 19.3859 48.7872 19.3084L51.2859 14.6887Z" fill="#1B1B1B"/>
<path d="M66.448 34.7943C66.2155 34.7943 66.0896 34.6878 66.0703 34.4747L65.6054 31.6855C65.6054 31.5887 65.5473 31.5403 65.4311 31.5403H61.7412C61.6249 31.5403 61.5668 31.5887 61.5668 31.6855L61.102 34.4747C61.0826 34.6878 60.9567 34.7943 60.7243 34.7943H57.3249C57.0731 34.7943 56.9763 34.6684 57.0344 34.4166L61.3053 14.7759C61.3441 14.5628 61.47 14.4563 61.6831 14.4563H65.6054C65.8185 14.4563 65.9444 14.5628 65.9831 14.7759L70.225 34.4166L70.2541 34.5329C70.2541 34.7072 70.1475 34.7943 69.9345 34.7943H66.448ZM62.1479 28.2281C62.1479 28.3249 62.1867 28.3733 62.2641 28.3733H64.879C64.9759 28.3733 65.0146 28.3249 64.9952 28.2281L63.6297 20.2962C63.6103 20.2381 63.5813 20.2091 63.5425 20.2091C63.5038 20.2091 63.4747 20.2381 63.4554 20.2962L62.1479 28.2281Z" fill="#1B1B1B"/>
<path d="M76.8746 35.0268C75.1314 35.0268 73.7271 34.5329 72.6617 33.545C71.6158 32.5378 71.0928 31.2013 71.0928 29.5355V19.7151C71.0928 18.0494 71.6158 16.7225 72.6617 15.7347C73.7271 14.7275 75.1314 14.2239 76.8746 14.2239C78.6179 14.2239 80.0222 14.7275 81.0875 15.7347C82.1528 16.7419 82.6855 18.0784 82.6855 19.7442V20.8483C82.6855 20.9451 82.6467 21.0323 82.5693 21.1098C82.5112 21.1679 82.4337 21.1969 82.3368 21.1969H78.9375C78.8406 21.1969 78.7535 21.1679 78.676 21.1098C78.6179 21.0323 78.5888 20.9451 78.5888 20.8483V19.6861C78.5888 19.105 78.4339 18.6401 78.1239 18.2915C77.814 17.9235 77.3976 17.7395 76.8746 17.7395C76.371 17.7395 75.9642 17.9235 75.6543 18.2915C75.3444 18.6401 75.1895 19.105 75.1895 19.6861V29.5646C75.1895 30.1456 75.3444 30.6202 75.6543 30.9882C75.9642 31.3369 76.371 31.5112 76.8746 31.5112C77.3976 31.5112 77.814 31.3369 78.1239 30.9882C78.4339 30.6202 78.5888 30.1456 78.5888 29.5646V27.2402C78.5888 27.1434 78.5404 27.0949 78.4435 27.0949H77.1652C77.0683 27.0949 76.9811 27.0659 76.9037 27.0078C76.8456 26.9303 76.8165 26.8431 76.8165 26.7463V24.1605C76.8165 24.0636 76.8456 23.9861 76.9037 23.928C76.9811 23.8505 77.0683 23.8118 77.1652 23.8118H82.3368C82.4337 23.8118 82.5112 23.8505 82.5693 23.928C82.6467 23.9861 82.6855 24.0636 82.6855 24.1605V29.5355C82.6855 31.2013 82.1528 32.5378 81.0875 33.545C80.0222 34.5329 78.6179 35.0268 76.8746 35.0268Z" fill="#1B1B1B"/>
<path d="M85.2945 34.7943C85.1976 34.7943 85.1105 34.7653 85.033 34.7072C84.9749 34.6297 84.9458 34.5425 84.9458 34.4457V14.805C84.9458 14.7081 84.9749 14.6306 85.033 14.5725C85.1105 14.495 85.1976 14.4563 85.2945 14.4563H88.6938C88.7907 14.4563 88.8681 14.495 88.9263 14.5725C89.0037 14.6306 89.0425 14.7081 89.0425 14.805V34.4457C89.0425 34.5425 89.0037 34.6297 88.9263 34.7072C88.8681 34.7653 88.7907 34.7943 88.6938 34.7943H85.2945Z" fill="#1B1B1B"/>
<path d="M97.1332 35.0268C95.3899 35.0268 93.9856 34.5135 92.9203 33.4869C91.8744 32.4409 91.3514 31.0463 91.3514 29.3031V19.8895C91.3514 18.1656 91.8744 16.7903 92.9203 15.7638C93.9856 14.7372 95.3899 14.2239 97.1332 14.2239C98.8958 14.2239 100.3 14.7372 101.346 15.7638C102.411 16.7903 102.944 18.1656 102.944 19.8895V20.2091C102.944 20.3059 102.905 20.3931 102.828 20.4706C102.77 20.5287 102.692 20.5577 102.595 20.5577L99.196 20.703C98.9636 20.703 98.8474 20.5965 98.8474 20.3834V19.628C98.8474 19.0663 98.6924 18.6111 98.3825 18.2624C98.0726 17.9138 97.6562 17.7395 97.1332 17.7395C96.6296 17.7395 96.2228 17.9138 95.9129 18.2624C95.603 18.6111 95.448 19.0663 95.448 19.628V29.6517C95.448 30.2134 95.603 30.6686 95.9129 31.0173C96.2228 31.3466 96.6296 31.5112 97.1332 31.5112C97.6562 31.5112 98.0726 31.3466 98.3825 31.0173C98.6924 30.6686 98.8474 30.2134 98.8474 29.6517V28.8673C98.8474 28.7704 98.8765 28.6929 98.9346 28.6348C99.012 28.5573 99.0992 28.5186 99.196 28.5186L102.595 28.6639C102.692 28.6639 102.77 28.7026 102.828 28.7801C102.905 28.8382 102.944 28.9157 102.944 29.0125V29.3031C102.944 31.0463 102.411 32.4409 101.346 33.4869C100.281 34.5135 98.8765 35.0268 97.1332 35.0268Z" fill="#1B1B1B"/>
<path d="M47.7905 37.5028C47.8184 37.4693 47.8519 37.4526 47.8909 37.4526H48.5274C48.5832 37.4526 48.6111 37.4805 48.6111 37.5363V43.2306C48.6111 43.2864 48.5832 43.3143 48.5274 43.3143H47.8909C47.8351 43.3143 47.8072 43.2864 47.8072 43.2306V38.9431C47.8072 38.9264 47.8016 38.9152 47.7905 38.9096C47.7793 38.9041 47.7709 38.9096 47.7653 38.9264L46.5679 40.7519C46.5455 40.7854 46.512 40.8021 46.4674 40.8021H46.1492C46.1101 40.8021 46.0766 40.7854 46.0487 40.7519L44.8428 38.9431C44.8373 38.9264 44.8289 38.9208 44.8177 38.9264C44.8065 38.932 44.801 38.9431 44.801 38.9599V43.2306C44.801 43.2864 44.7731 43.3143 44.7172 43.3143H44.0808C44.025 43.3143 43.9971 43.2864 43.9971 43.2306V37.5363C43.9971 37.4805 44.025 37.4526 44.0808 37.4526H44.7172C44.7619 37.4526 44.7954 37.4693 44.8177 37.5028L46.2831 39.6968C46.2887 39.7024 46.2971 39.7052 46.3083 39.7052C46.3194 39.7052 46.3278 39.7024 46.3334 39.6968L47.7905 37.5028Z" fill="#1B1B1B"/>
<path d="M54.1701 43.3143C54.1142 43.3143 54.0863 43.2864 54.0863 43.2306V37.5363C54.0863 37.4805 54.1142 37.4526 54.1701 37.4526H54.8065C54.8623 37.4526 54.8902 37.4805 54.8902 37.5363V43.2306C54.8902 43.2864 54.8623 43.3143 54.8065 43.3143H54.1701Z" fill="#1B1B1B"/>
<path d="M60.4485 43.3143C60.3927 43.3143 60.3648 43.2864 60.3648 43.2306V37.5363C60.3648 37.4805 60.3927 37.4526 60.4485 37.4526H61.0849C61.1408 37.4526 61.1687 37.4805 61.1687 37.5363V42.5858C61.1687 42.6081 61.1798 42.6193 61.2022 42.6193H64.0912C64.147 42.6193 64.1749 42.6472 64.1749 42.703V43.2306C64.1749 43.2864 64.147 43.3143 64.0912 43.3143H60.4485Z" fill="#1B1B1B"/>
<path d="M69.3275 43.3143C69.2717 43.3143 69.2437 43.2864 69.2437 43.2306V37.5363C69.2437 37.4805 69.2717 37.4526 69.3275 37.4526H69.9639C70.0197 37.4526 70.0476 37.4805 70.0476 37.5363V40.2076C70.0476 40.2188 70.0532 40.2271 70.0644 40.2327C70.0756 40.2327 70.0839 40.2271 70.0895 40.216L72.4844 37.5028C72.5068 37.4693 72.5403 37.4526 72.5849 37.4526H73.3135C73.347 37.4526 73.3693 37.4637 73.3805 37.4861C73.3916 37.5028 73.386 37.5251 73.3637 37.5531L71.3707 39.9061C71.3651 39.9229 71.3651 39.9396 71.3707 39.9564L73.5061 43.2138C73.5172 43.2362 73.5228 43.2529 73.5228 43.2641C73.5228 43.2976 73.5005 43.3143 73.4558 43.3143H72.7273C72.6882 43.3143 72.6547 43.2976 72.6268 43.2641L70.818 40.5258C70.8125 40.5146 70.8041 40.5091 70.7929 40.5091C70.7817 40.5091 70.7734 40.5118 70.7678 40.5174L70.0644 41.3046C70.0532 41.3269 70.0476 41.3409 70.0476 41.3464V43.2306C70.0476 43.2864 70.0197 43.3143 69.9639 43.3143H69.3275Z" fill="#1B1B1B"/>
<path d="M82.2334 37.4526C82.2893 37.4526 82.3172 37.4805 82.3172 37.5363V38.0722C82.3172 38.1281 82.2893 38.156 82.2334 38.156H80.6256C80.6033 38.156 80.5922 38.1671 80.5922 38.1895V43.2306C80.5922 43.2864 80.5642 43.3143 80.5084 43.3143H79.872C79.8162 43.3143 79.7883 43.2864 79.7883 43.2306V38.1895C79.7883 38.1671 79.7771 38.156 79.7548 38.156H78.2223C78.1665 38.156 78.1386 38.1281 78.1386 38.0722V37.5363C78.1386 37.4805 78.1665 37.4526 78.2223 37.4526H82.2334Z" fill="#1B1B1B"/>
<path d="M91.3126 38.0639C91.3126 38.1197 91.2847 38.1476 91.2288 38.1476H88.2561C88.2338 38.1476 88.2226 38.1588 88.2226 38.1811V39.9815C88.2226 40.0038 88.2338 40.015 88.2561 40.015H90.2993C90.3552 40.015 90.3831 40.0429 90.3831 40.0987V40.6263C90.3831 40.6821 90.3552 40.71 90.2993 40.71H88.2561C88.2338 40.71 88.2226 40.7212 88.2226 40.7435V42.5858C88.2226 42.6081 88.2338 42.6193 88.2561 42.6193H91.2288C91.2847 42.6193 91.3126 42.6472 91.3126 42.703V43.2306C91.3126 43.2864 91.2847 43.3143 91.2288 43.3143H87.5025C87.4466 43.3143 87.4187 43.2864 87.4187 43.2306V37.5363C87.4187 37.4805 87.4466 37.4526 87.5025 37.4526H91.2288C91.2847 37.4526 91.3126 37.4805 91.3126 37.5363V38.0639Z" fill="#1B1B1B"/>
<path d="M100.086 43.3143C100.035 43.3143 100.002 43.292 99.9851 43.2473L99.6836 42.2676C99.678 42.2508 99.6669 42.2425 99.6501 42.2425H97.2971C97.2803 42.2425 97.2691 42.2508 97.2636 42.2676L96.9621 43.2473C96.9453 43.292 96.9118 43.3143 96.8616 43.3143H96.1833C96.1219 43.3143 96.0996 43.2836 96.1163 43.2222L97.9502 37.5196C97.967 37.4749 98.0005 37.4526 98.0507 37.4526H98.8881C98.9383 37.4526 98.9718 37.4749 98.9886 37.5196L100.839 43.2222L100.848 43.2557C100.848 43.2948 100.822 43.3143 100.772 43.3143H100.086ZM97.4729 41.5642C97.4673 41.5753 97.4673 41.5865 97.4729 41.5977C97.4841 41.6032 97.4952 41.606 97.5064 41.606H99.4324C99.4436 41.606 99.4519 41.6032 99.4575 41.5977C99.4687 41.5865 99.4715 41.5753 99.4659 41.5642L98.4945 38.4574C98.4889 38.4463 98.4806 38.4407 98.4694 38.4407C98.4582 38.4407 98.4499 38.4463 98.4443 38.4574L97.4729 41.5642Z" fill="#1B1B1B"/>
</svg>
