<svg width="32" height="32" viewBox="0 0 32 32" fill="none" xmlns="http://www.w3.org/2000/svg">
<path d="M14.6667 2.66699V11.219C12.8205 10.8763 10.9135 11.1111 9.20542 11.8912C7.49738 12.6714 6.07131 13.959 5.12144 15.5789C4.17156 17.1987 3.74404 19.0719 3.8971 20.9434C4.05015 22.815 4.77635 24.5938 5.97679 26.0378C7.17722 27.4817 8.79355 28.5206 10.6057 29.0129C12.4178 29.5051 14.3376 29.4269 16.1036 28.7888C17.8696 28.1508 19.3961 26.9838 20.4751 25.447C21.554 23.9102 22.1331 22.0781 22.1334 20.2003V15.219C23.5667 15.8285 25.1092 16.1397 26.6667 16.1337H28V8.66699H26.6667C24.1294 8.66699 22.1334 6.61766 22.1334 4.00033V2.66699H14.6667ZM17.3334 5.33366H19.584C20.1094 8.29366 22.3574 10.6617 25.3334 11.2137V13.371C23.9494 13.1683 22.7 12.6483 21.5427 11.8737L19.4667 10.4843V20.2003C19.4666 21.4935 19.0788 22.7569 18.3533 23.8274C17.6279 24.8979 16.5981 25.7264 15.3971 26.2057C14.196 26.6851 12.8789 26.7933 11.6157 26.5165C10.3525 26.2396 9.20132 25.5904 8.31084 24.6527C7.42036 23.715 6.83147 22.5318 6.62023 21.2561C6.40899 19.9803 6.58511 18.6704 7.12584 17.4957C7.66656 16.3211 8.54706 15.3355 9.65361 14.6663C10.7602 13.9971 12.0419 13.675 13.3334 13.7417V15.8803C12.4647 15.8133 11.5959 16.0097 10.8405 16.4439C10.0852 16.8781 9.4782 17.5299 9.09889 18.3143C8.71958 19.0987 8.58554 19.9792 8.71425 20.841C8.84296 21.7027 9.22845 22.5056 9.82041 23.1449C10.4124 23.7842 11.1833 24.2303 12.0326 24.4248C12.8819 24.6193 13.7701 24.5533 14.5813 24.2353C15.3925 23.9174 16.089 23.3623 16.58 22.6425C17.0709 21.9227 17.3335 21.0716 17.3334 20.2003V5.33366ZM11.3334 20.2003C11.3334 19.7583 11.509 19.3344 11.8215 19.0218C12.1341 18.7093 12.558 18.5337 13 18.5337C13.4421 18.5337 13.866 18.7093 14.1786 19.0218C14.4911 19.3344 14.6667 19.7583 14.6667 20.2003C14.6667 20.6424 14.4911 21.0663 14.1786 21.3788C13.866 21.6914 13.4421 21.867 13 21.867C12.558 21.867 12.1341 21.6914 11.8215 21.3788C11.509 21.0663 11.3334 20.6424 11.3334 20.2003Z" fill="#FF7A00"/>
</svg>
